<?xml version="1.0" encoding="utf-8"?>
<!-- Generator: Adobe Illustrator 18.0.0, SVG Export Plug-In . SVG Version: 6.00 Build 0)  -->
<!DOCTYPE svg PUBLIC "-//W3C//DTD SVG 1.1//EN" "http://www.w3.org/Graphics/SVG/1.1/DTD/svg11.dtd">
<svg version="1.1" id="Layer_1" xmlns="http://www.w3.org/2000/svg" xmlns:xlink="http://www.w3.org/1999/xlink" x="0px" y="0px"
	 viewBox="0 0 470.7 266.7" enable-background="new 0 0 470.7 266.7" xml:space="preserve">
<polyline fill="#2D294E" points="108.3,45.4 144.2,81.3 144.4,81.1 108.5,45.2 "/>
<polyline fill="#2D294E" points="108.5,81.3 144.4,45.4 144.2,45.2 108.3,81.1 "/>
<rect x="101" y="63.1" fill="#2D294E" width="50.7" height="0.3"/>
<rect x="126.2" y="37.9" fill="#2D294E" width="0.3" height="50.7"/>
<path fill="#6FBE44" d="M83,48.7C78,40,68.6,34.6,57.7,34.6c-16.5,0-29.5,11.9-29.5,29.7c0,17.5,13,29.6,29.5,29.6
	c11.5,0,21.5-6.2,26.4-15.9l3.5,1c-5.4,11.3-16.5,18.4-29.8,18.4c-18.3,0-33-13.9-33-33.1c0-19.2,14.7-33.1,33-33.1
	c12.5,0,23.2,6.5,28.9,16.5L83,48.7z"/>
<path fill="#6FBE44" d="M219.1,32.5v63.6h-3.3L180,47.9c-5.5-7.4-7.1-10-7.2-10h-0.1c-0.1,0,0.2,7,0.2,15.2v43.1h-3.5V32.5h3.3
	l35.6,47.9c5.2,6.9,7.4,10,7.5,10h0.1c0.1,0-0.3-7.1-0.3-15.1V32.5H219.1z"/>
<polygon fill="#6FBE44" points="275.5,32.5 275.5,35.9 253.2,35.9 253.2,96.1 249.7,96.1 249.7,35.9 227.4,35.9 227.4,32.5 "/>
<polygon fill="#6FBE44" points="324.9,92.8 324.9,96.1 283.8,96.1 283.8,32.5 324.3,32.5 324.3,35.9 287.2,35.9 287.2,60.1 
	317.3,60.1 317.3,63.4 287.2,63.4 287.2,92.8 "/>
<path fill="#6FBE44" d="M384,32.5v63.6h-3.3l-35.8-48.3c-5.5-7.4-7.1-10-7.2-10h-0.1c-0.1,0,0.2,7,0.2,15.2v43.1h-3.5V32.5h3.3
	l35.6,47.9c5.2,6.9,7.4,10,7.5,10h0.1c0.1,0-0.3-7.1-0.3-15.1V32.5H384z"/>
<polygon fill="#6FBE44" points="440.4,32.5 440.4,35.9 418.1,35.9 418.1,96.1 414.6,96.1 414.6,35.9 392.3,35.9 392.3,32.5 "/>
<path fill="#227B82" d="M147,110.8v128h-14.8v-57.6c0-19.7,0.9-45.2,0.7-45.2h-0.2c-0.2,0-6.6,11.7-11.2,19.4l-29.8,51.9h-7.9
	l-29.8-51.9c-4.6-7.7-11-19.4-11.2-19.4h-0.2c-0.2,0,0.7,25.4,0.7,45.2v57.6H28.7v-128h14.1L74.6,165c11,18.6,13,23.8,13.2,23.8h0.2
	c0.2,0,2.2-5.1,13.2-23.8l31.8-54.1H147z"/>
<rect x="176.1" y="110.8" fill="#227B82" width="15" height="128"/>
<path fill="#227B82" d="M324.8,110.8v128h-14.1l-56.9-76.6c-11-15.2-19-26.9-19.2-26.9h-0.2c-0.2,0,0.4,15.9,0.4,36.4v67.1h-15v-128
	h14.1l56.9,76.4c9.7,13,19,26.3,19.2,26.3h0.2c0.2,0-0.4-17.2-0.4-35.5v-67.3H324.8z"/>
<polygon fill="#227B82" points="353.9,110.8 353.9,238.8 440.4,238.8 440.4,224.8 368.9,224.8 368.9,177.8 425.4,177.8 425.4,164.4 
	368.9,164.4 368.9,124.9 439.3,124.9 439.3,110.8 "/>
<path fill="#6FBE44" d="M119.7,63.2c0-3.7,3-6.6,6.6-6.6c3.7,0,6.6,3,6.6,6.6c0,3.7-3,6.6-6.6,6.6C122.7,69.9,119.7,66.9,119.7,63.2
	"/>
<path fill="#2D294E" d="M119.7,37.9c0-3.7,3-6.6,6.6-6.6c3.7,0,6.6,3,6.6,6.6c0,3.7-3,6.6-6.6,6.6C122.7,44.5,119.7,41.5,119.7,37.9
	"/>
<path fill="#2D294E" d="M119.8,89.4c0-3.6,2.9-6.5,6.5-6.5c3.6,0,6.5,2.9,6.5,6.5c0,3.6-2.9,6.5-6.5,6.5
	C122.8,96,119.8,93,119.8,89.4"/>
<path fill="#2D294E" d="M145.9,62.8c0-3.7,3-6.6,6.6-6.6c3.7,0,6.6,3,6.6,6.6c0,3.7-3,6.6-6.6,6.6C148.9,69.4,145.9,66.5,145.9,62.8
	"/>
<path fill="#2D294E" d="M93.3,62.8c0-3.7,3-6.6,6.6-6.6c3.7,0,6.6,3,6.6,6.6c0,3.7-3,6.6-6.6,6.6C96.3,69.4,93.3,66.5,93.3,62.8"/>
<path fill="#2D294E" d="M140.4,40.9c2.6-2.6,6.8-2.6,9.4,0c2.6,2.6,2.6,6.8,0,9.4c-2.6,2.6-6.8,2.6-9.4,0
	C137.8,47.7,137.8,43.5,140.4,40.9"/>
<path fill="#2D294E" d="M103.4,77.9c2.6-2.6,6.8-2.6,9.4,0c2.6,2.6,2.6,6.8,0,9.4c-2.6,2.6-6.8,2.6-9.4,0
	C100.9,84.6,100.9,80.4,103.4,77.9"/>
<path fill="#2D294E" d="M102.9,50.3c-2.6-2.6-2.6-6.8,0-9.4c2.6-2.6,6.8-2.6,9.4,0c2.6,2.6,2.6,6.8,0,9.4
	C109.7,52.9,105.5,52.9,102.9,50.3"/>
<path fill="#2D294E" d="M140,87.5c-2.6-2.6-2.6-6.8,0-9.4c2.6-2.6,6.8-2.6,9.4,0c2.6,2.6,2.6,6.8,0,9.4
	C146.7,90.1,142.6,90.1,140,87.5"/>
<g>
</g>
<g>
</g>
<g>
</g>
<g>
</g>
<g>
</g>
<g>
</g>
</svg>
