<?xml version="1.0" encoding="utf-8"?>
<!-- Generator: Adobe Illustrator 18.0.0, SVG Export Plug-In . SVG Version: 6.00 Build 0)  -->
<!DOCTYPE svg PUBLIC "-//W3C//DTD SVG 1.1//EN" "http://www.w3.org/Graphics/SVG/1.1/DTD/svg11.dtd">
<svg version="1.1" id="Layer_1" xmlns="http://www.w3.org/2000/svg" xmlns:xlink="http://www.w3.org/1999/xlink" x="0px" y="0px"
	 viewBox="0 0 73 72.7" enable-background="new 0 0 73 72.7" xml:space="preserve">
<polyline fill="#2D294E" points="18.4,18.7 54.3,54.6 54.5,54.3 18.6,18.4 "/>
<polyline fill="#2D294E" points="18.6,54.6 54.5,18.7 54.3,18.4 18.4,54.3 "/>
<rect x="11.1" y="36.3" fill="#2D294E" width="50.7" height="0.3"/>
<rect x="36.3" y="11.1" fill="#2D294E" width="0.3" height="50.7"/>
<path fill="#6EBD44" d="M29.8,36.5c0-3.7,3-6.6,6.6-6.6c3.7,0,6.6,3,6.6,6.6c0,3.7-3,6.6-6.6,6.6C32.8,43.1,29.8,40.2,29.8,36.5"/>
<path fill="#2D294E" d="M29.8,11.1c0-3.7,3-6.6,6.6-6.6c3.7,0,6.6,3,6.6,6.6c0,3.7-3,6.6-6.6,6.6C32.8,17.8,29.8,14.8,29.8,11.1"/>
<path fill="#2D294E" d="M30,62.7c0-3.6,2.9-6.5,6.5-6.5c3.6,0,6.5,2.9,6.5,6.5c0,3.6-2.9,6.5-6.5,6.5C32.9,69.2,30,66.3,30,62.7"/>
<path fill="#2D294E" d="M56.1,36.1c0-3.7,3-6.6,6.6-6.6c3.7,0,6.6,3,6.6,6.6c0,3.7-3,6.6-6.6,6.6C59,42.7,56.1,39.7,56.1,36.1"/>
<path fill="#2D294E" d="M3.4,36.1c0-3.7,3-6.6,6.6-6.6c3.7,0,6.6,3,6.6,6.6c0,3.7-3,6.6-6.6,6.6C6.4,42.7,3.4,39.7,3.4,36.1"/>
<path fill="#2D294E" d="M50.5,14.2c2.6-2.6,6.8-2.6,9.4,0c2.6,2.6,2.6,6.8,0,9.4c-2.6,2.6-6.8,2.6-9.4,0
	C47.9,21,47.9,16.8,50.5,14.2"/>
<path fill="#2D294E" d="M13.6,51.1c2.6-2.6,6.8-2.6,9.4,0c2.6,2.6,2.6,6.8,0,9.4c-2.6,2.6-6.8,2.6-9.4,0C11,57.9,11,53.7,13.6,51.1"
	/>
<path fill="#2D294E" d="M13.1,23.6c-2.6-2.6-2.6-6.8,0-9.4c2.6-2.6,6.8-2.6,9.4,0c2.6,2.6,2.6,6.8,0,9.4
	C19.9,26.2,15.7,26.2,13.1,23.6"/>
<path fill="#2D294E" d="M50.1,60.8c-2.6-2.6-2.6-6.8,0-9.4c2.6-2.6,6.8-2.6,9.4,0c2.6,2.6,2.6,6.8,0,9.4
	C56.9,63.4,52.7,63.4,50.1,60.8"/>
<g>
</g>
<g>
</g>
<g>
</g>
<g>
</g>
<g>
</g>
<g>
</g>
<g>
</g>
<g>
</g>
<g>
</g>
<g>
</g>
<g>
</g>
<g>
</g>
<g>
</g>
<g>
</g>
<g>
</g>
</svg>
